<?xml version="1.0" standalone="no"?><!DOCTYPE svg PUBLIC "-//W3C//DTD SVG 1.1//EN" "http://www.w3.org/Graphics/SVG/1.1/DTD/svg11.dtd"><svg t="1695104521254" class="icon" viewBox="0 0 1024 1024" version="1.1" xmlns="http://www.w3.org/2000/svg" p-id="5579" xmlns:xlink="http://www.w3.org/1999/xlink" width="200" height="200"><path d="M269.312 230.4L159.744 459.776H209.92l97.28-204.8c24.576 4.096 83.968 9.216 87.552-30.72C399.36 174.08 331.776 165.376 269.312 230.4z" fill="#FFB87D" p-id="5580"></path><path d="M221.184 477.696H131.584l122.88-258.048 2.048-2.048c42.496-44.032 92.16-61.952 126.976-46.08 20.48 9.216 31.744 29.696 29.184 54.272-1.024 14.336-7.68 26.112-18.432 34.816-19.456 15.36-50.176 16.896-76.288 13.824L221.184 477.696z m-33.28-35.84h10.752L296.96 235.52l13.312 2.048c28.672 4.608 52.224 2.56 61.952-5.12 3.072-2.56 4.608-5.12 5.12-9.728 1.024-14.336-6.144-17.408-8.704-18.432-13.312-6.144-47.104-1.536-84.48 36.352L187.904 441.856z" fill="#6147B2" p-id="5581"></path><path d="M754.688 230.4l109.568 229.888H814.08l-97.28-204.8c-24.576 4.096-83.968 9.216-87.552-30.72-4.608-50.688 62.976-59.392 125.44 5.632z" fill="#FF52A1" p-id="5582"></path><path d="M892.416 477.696h-89.6l-96.768-203.264c-26.112 2.56-56.32 1.536-76.288-13.824-10.752-8.704-17.408-20.48-18.432-34.816-2.048-24.576 8.704-45.056 29.184-54.272 34.816-15.872 84.48 2.56 126.976 46.08l2.048 2.048 122.88 258.048z m-67.072-35.84h10.752L739.84 240.64c-37.376-37.888-70.656-42.496-84.48-36.352-2.56 1.024-9.728 4.608-8.704 18.432 0.512 4.608 2.048 7.168 5.12 9.728 9.728 7.68 33.28 9.728 61.952 5.12l13.312-2.048 98.304 206.336z" fill="#6147B2" p-id="5583"></path><path d="M404.48 536.576h227.328v90.112H404.48z" fill="#FFB87D" p-id="5584"></path><path d="M649.728 645.12H387.072v-125.952H650.24V645.12h-0.512z m-227.328-35.84h191.488v-54.784H422.4V609.28z" fill="#6147B2" p-id="5585"></path><path d="M613.888 600.064H407.04c-9.728 0-17.92-8.192-17.92-17.92s8.192-17.92 17.92-17.92h206.848c9.728 0 17.92 8.192 17.92 17.92s-8.192 17.92-17.92 17.92z" fill="#FF52A1" p-id="5586"></path><path d="M180.736 509.44H389.12c64.512 0 107.008 67.072 79.36 125.44-47.104 99.84-132.096 219.648-266.24 204.288 0 0-128.512-1.024-133.12-181.248-1.536-61.952 23.04-100.352 46.08-122.368 17.92-16.896 41.472-26.112 65.536-26.112z" fill="#FF52A1" p-id="5587"></path><path d="M225.792 858.112c-8.704 0-16.896-0.512-24.576-1.536-50.688-1.024-145.92-43.008-150.016-198.144-1.536-69.632 27.136-112.64 51.712-136.192 20.992-19.968 48.64-31.232 77.824-31.232H389.12c36.352 0 69.632 18.432 89.088 49.152 19.456 30.72 22.016 68.608 6.144 101.888-81.408 174.08-181.76 216.064-258.56 216.064zM180.736 527.36c-19.968 0-38.912 7.68-53.248 20.992-19.456 18.432-41.984 52.736-40.448 109.056 4.096 159.744 111.104 163.328 115.712 163.84h2.048c7.168 1.024 14.336 1.024 21.504 1.024 110.592 0 183.808-104.448 226.816-195.072 10.24-22.016 8.704-47.104-4.096-67.584s-34.816-32.256-58.88-32.256H180.736z" fill="#6147B2" p-id="5588"></path><path d="M232.448 504.832h60.928l-149.504 303.104-37.376-11.264zM354.304 510.464l65.024-3.072L276.48 832H209.92z" fill="#FF73B9" p-id="5589"></path><path d="M225.792 858.112c-8.704 0-16.896-0.512-24.576-1.536-50.688-1.024-145.92-43.008-150.016-198.144-1.536-69.632 27.136-112.64 51.712-136.192 20.992-19.968 48.64-31.232 77.824-31.232H389.12c36.352 0 69.632 18.432 89.088 49.152 19.456 30.72 22.016 68.608 6.144 101.888-81.408 174.08-181.76 216.064-258.56 216.064zM180.736 527.36c-19.968 0-38.912 7.68-53.248 20.992-19.456 18.432-41.984 52.736-40.448 109.056 4.096 159.744 111.104 163.328 115.712 163.84h2.048c7.168 1.024 14.336 1.024 21.504 1.024 110.592 0 183.808-104.448 226.816-195.072 10.24-22.016 8.704-47.104-4.096-67.584s-34.816-32.256-58.88-32.256H180.736z" fill="#6147B2" p-id="5590"></path><path d="M843.264 509.44H634.88c-64.512 0-107.008 67.072-79.36 125.44 47.104 99.84 132.096 219.648 266.24 204.288 0 0 128.512-1.024 133.12-181.248 1.536-61.952-23.04-100.352-46.08-122.368-17.92-16.896-41.472-26.112-65.536-26.112z" fill="#6ED7FF" p-id="5591"></path><path d="M798.208 858.112c-76.8 0-177.152-41.472-259.072-215.552-15.36-32.768-13.312-71.168 6.144-101.888 19.456-30.72 52.736-49.152 89.088-49.152h208.384c29.696 0 57.344 10.752 77.824 31.232 24.576 23.552 53.248 66.048 51.712 135.68-4.096 155.136-99.328 197.632-150.016 198.144-7.168 1.024-15.36 1.536-24.064 1.536zM634.88 527.36c-24.064 0-46.08 12.288-58.88 32.256-12.8 20.48-14.336 45.568-4.096 67.584 45.568 96.256 125.44 208.384 247.808 194.048h2.048c4.608 0 111.104-4.096 115.2-163.84 1.536-56.32-21.504-90.624-40.448-109.056-14.336-13.824-33.28-20.992-53.248-20.992H634.88z" fill="#6147B2" p-id="5592"></path><path d="M844.288 517.12l66.56 8.192-96.768 308.736-55.296-2.56zM768 505.856l40.448 1.536-96.768 308.736-27.648-16.384z" fill="#97E7FF" p-id="5593"></path><path d="M798.208 858.112c-76.8 0-177.152-41.472-259.072-215.552-15.36-32.768-13.312-71.168 6.144-101.888 19.456-30.72 52.736-49.152 89.088-49.152h208.384c29.696 0 57.344 10.752 77.824 31.232 24.576 23.552 53.248 66.048 51.712 135.68-4.096 155.136-99.328 197.632-150.016 198.144-7.168 1.024-15.36 1.536-24.064 1.536zM634.88 527.36c-24.064 0-46.08 12.288-58.88 32.256-12.8 20.48-14.336 45.568-4.096 67.584 45.568 96.256 125.44 208.384 247.808 194.048h2.048c4.608 0 111.104-4.096 115.2-163.84 1.536-56.32-21.504-90.624-40.448-109.056-14.336-13.824-33.28-20.992-53.248-20.992H634.88z" fill="#6147B2" p-id="5594"></path></svg>